<svg width="492" height="71" viewBox="0 0 492 71" fill="none" xmlns="http://www.w3.org/2000/svg">
<path d="M0.529412 67.4706H4.05882V71H0.529412V67.4706ZM4.05882 67.4706H7.58823V71H4.05882V67.4706ZM7.58823 67.4706H11.1176V71H7.58823V67.4706ZM11.1176 67.4706H14.6471V71H11.1176V67.4706ZM11.1176 63.9412H14.6471V67.4706H11.1176V63.9412ZM7.58823 63.9412H11.1176V67.4706H7.58823V63.9412ZM4.05882 63.9412H7.58823V67.4706H4.05882V63.9412ZM0.529412 63.9412H4.05882V67.4706H0.529412V63.9412ZM0.529412 60.4118H4.05882V63.9412H0.529412V60.4118ZM0.529412 56.8824H4.05882V60.4118H0.529412V56.8824ZM0.529412 53.3529H4.05882V56.8824H0.529412V53.3529ZM0.529412 49.8235H4.05882V53.3529H0.529412V49.8235ZM0.529412 46.2941H4.05882V49.8235H0.529412V46.2941ZM0.529412 42.7647H4.05882V46.2941H0.529412V42.7647ZM0.529412 39.2353H4.05882V42.7647H0.529412V39.2353ZM4.05882 39.2353H7.58823V42.7647H4.05882V39.2353ZM4.05882 35.7059H7.58823V39.2353H4.05882V35.7059ZM4.05882 32.1765H7.58823V35.7059H4.05882V32.1765ZM7.58823 32.1765H11.1176V35.7059H7.58823V32.1765ZM7.58823 35.7059H11.1176V39.2353H7.58823V35.7059ZM11.1176 35.7059H14.6471V39.2353H11.1176V35.7059ZM11.1176 39.2353H14.6471V42.7647H11.1176V39.2353ZM11.1176 42.7647H14.6471V46.2941H11.1176V42.7647ZM11.1176 46.2941H14.6471V49.8235H11.1176V46.2941ZM11.1176 49.8235H14.6471V53.3529H11.1176V49.8235ZM11.1176 53.3529H14.6471V56.8824H11.1176V53.3529ZM11.1176 56.8824H14.6471V60.4118H11.1176V56.8824ZM11.1176 60.4118H14.6471V63.9412H11.1176V60.4118ZM7.58823 60.4118H11.1176V63.9412H7.58823V60.4118ZM7.58823 56.8824H11.1176V60.4118H7.58823V56.8824ZM7.58823 53.3529H11.1176V56.8824H7.58823V53.3529ZM7.58823 49.8235H11.1176V53.3529H7.58823V49.8235ZM7.58823 46.2941H11.1176V49.8235H7.58823V46.2941ZM7.58823 42.7647H11.1176V46.2941H7.58823V42.7647ZM7.58823 39.2353H11.1176V42.7647H7.58823V39.2353ZM4.05882 42.7647H7.58823V46.2941H4.05882V42.7647ZM4.05882 46.2941H7.58823V49.8235H4.05882V46.2941ZM4.05882 49.8235H7.58823V53.3529H4.05882V49.8235ZM4.05882 53.3529H7.58823V56.8824H4.05882V53.3529ZM4.05882 56.8824H7.58823V60.4118H4.05882V56.8824ZM4.05882 60.4118H7.58823V63.9412H4.05882V60.4118ZM0.529412 0.411769H4.05882V3.94118H0.529412V0.411769ZM0.529412 3.94118H4.05882V7.47059H0.529412V3.94118ZM0.529412 11H4.05882V14.5294H0.529412V11ZM0.529412 14.5294H4.05882V18.0588H0.529412V14.5294ZM0.529412 18.0588H4.05882V21.5882H0.529412V18.0588ZM0.529412 21.5882H4.05882V25.1176H0.529412V21.5882ZM0.529412 25.1176H4.05882V28.6471H0.529412V25.1176ZM0.529412 28.6471H4.05882V32.1765H0.529412V28.6471ZM0.529412 32.1765H4.05882V35.7059H0.529412V32.1765ZM0.529412 35.7059H4.05882V39.2353H0.529412V35.7059ZM4.05882 21.5882H7.58823V25.1176H4.05882V21.5882ZM4.05882 18.0588H7.58823V21.5882H4.05882V18.0588ZM4.05882 14.5294H7.58823V18.0588H4.05882V14.5294ZM4.05882 11H7.58823V14.5294H4.05882V11ZM4.05882 7.47059H7.58823V11H4.05882V7.47059ZM0.529412 7.47059H4.05882V11H0.529412V7.47059ZM4.05882 0.411769H7.58823V3.94118H4.05882V0.411769ZM7.58823 0.411769H11.1176V3.94118H7.58823V0.411769ZM7.58823 3.94118H11.1176V7.47059H7.58823V3.94118ZM11.1176 7.47059H14.6471V11H11.1176V7.47059ZM11.1176 3.94118H14.6471V7.47059H11.1176V3.94118ZM11.1176 0.411769H14.6471V3.94118H11.1176V0.411769ZM11.1176 11H14.6471V14.5294H11.1176V11ZM11.1176 14.5294H14.6471V18.0588H11.1176V14.5294ZM11.1176 18.0588H14.6471V21.5882H11.1176V18.0588ZM11.1176 21.5882H14.6471V25.1176H11.1176V21.5882ZM11.1176 25.1176H14.6471V28.6471H11.1176V25.1176ZM11.1176 28.6471H14.6471V32.1765H11.1176V28.6471ZM11.1176 32.1765H14.6471V35.7059H11.1176V32.1765ZM7.58823 28.6471H11.1176V32.1765H7.58823V28.6471ZM7.58823 25.1176H11.1176V28.6471H7.58823V25.1176ZM7.58823 21.5882H11.1176V25.1176H7.58823V21.5882ZM4.05882 25.1176H7.58823V28.6471H4.05882V25.1176ZM4.05882 28.6471H7.58823V32.1765H4.05882V28.6471ZM7.58823 18.0588H11.1176V21.5882H7.58823V18.0588ZM7.58823 7.47059H11.1176V11H7.58823V7.47059ZM7.58823 11H11.1176V14.5294H7.58823V11ZM7.58823 14.5294H11.1176V18.0588H7.58823V14.5294ZM4.05882 3.94118H7.58823V7.47059H4.05882V3.94118ZM53.4913 71H49.9619V67.4706H53.4913V71ZM60.5501 71H57.0207V67.4706H60.5501V71ZM49.9619 71H46.4324V67.4706H49.9619V71ZM46.4324 71H42.903V67.4706H46.4324V71ZM42.903 71H39.3736V67.4706H42.903V71ZM39.3736 71H35.8442V67.4706H39.3736V71ZM35.8442 67.4706H32.3148V63.9412H35.8442V67.4706ZM39.3736 67.4706H35.8442V63.9412H39.3736V67.4706ZM39.3736 63.9412H35.8442V60.4118H39.3736V63.9412ZM32.3148 67.4706H28.7854V63.9412H32.3148V67.4706ZM32.3148 63.9412H28.7854V60.4118H32.3148V63.9412ZM35.8442 63.9412H32.3148V60.4118H35.8442V63.9412ZM39.3736 60.4118H35.8442V56.8824H39.3736V60.4118ZM42.903 60.4118H39.3736V56.8824H42.903V60.4118ZM35.8442 60.4118H32.3148V56.8824H35.8442V60.4118ZM32.3148 60.4118H28.7854V56.8824H32.3148V60.4118ZM28.7854 60.4118H25.256V56.8824H28.7854V60.4118ZM28.7854 56.8824H25.256V53.3529H28.7854V56.8824ZM28.7854 35.7059H25.256V32.1765H28.7854V35.7059ZM28.7854 32.1765H25.256V28.6471H28.7854V32.1765ZM32.3148 32.1765H28.7854V28.6471H32.3148V32.1765ZM32.3148 28.6471H28.7854V25.1176H32.3148V28.6471ZM32.3148 25.1176H28.7854V21.5882H32.3148V25.1176ZM35.8442 25.1176H32.3148V21.5882H35.8442V25.1176ZM39.3736 25.1176H35.8442V21.5882H39.3736V25.1176ZM42.903 28.6471H39.3736V25.1176H42.903V28.6471ZM42.903 32.1765H39.3736V28.6471H42.903V32.1765ZM39.3736 32.1765H35.8442V28.6471H39.3736V32.1765ZM39.3736 28.6471H35.8442V25.1176H39.3736V28.6471ZM35.8442 28.6471H32.3148V25.1176H35.8442V28.6471ZM35.8442 32.1765H32.3148V28.6471H35.8442V32.1765ZM35.8442 35.7059H32.3148V32.1765H35.8442V35.7059ZM39.3736 35.7059H35.8442V32.1765H39.3736V35.7059ZM39.3736 56.8824H35.8442V53.3529H39.3736V56.8824ZM35.8442 56.8824H32.3148V53.3529H35.8442V56.8824ZM32.3148 35.7059H28.7854V32.1765H32.3148V35.7059ZM32.3148 56.8824H28.7854V53.3529H32.3148V56.8824ZM42.903 25.1176H39.3736V21.5882H42.903V25.1176ZM42.903 21.5882H39.3736V18.0588H42.903V21.5882ZM39.3736 21.5882H35.8442V18.0588H39.3736V21.5882ZM46.4324 21.5882H42.903V18.0588H46.4324V21.5882ZM49.9619 21.5882H46.4324V18.0588H49.9619V21.5882ZM53.4913 21.5882H49.9619V18.0588H53.4913V21.5882ZM57.0207 21.5882H53.4913V18.0588H57.0207V21.5882ZM60.5501 21.5882H57.0207V18.0588H60.5501V21.5882ZM60.5501 25.1176H57.0207V21.5882H60.5501V25.1176ZM64.0795 25.1176H60.5501V21.5882H64.0795V25.1176ZM67.6089 25.1176H64.0795V21.5882H67.6089V25.1176ZM67.6089 28.6471H64.0795V25.1176H67.6089V28.6471ZM71.1383 32.1765H67.6089V28.6471H71.1383V32.1765ZM67.6089 32.1765H64.0795V28.6471H67.6089V32.1765ZM71.1383 35.7059H67.6089V32.1765H71.1383V35.7059ZM71.1383 39.2353H67.6089V35.7059H71.1383V39.2353ZM71.1383 42.7647H67.6089V39.2353H71.1383V42.7647ZM71.1383 46.2941H67.6089V42.7647H71.1383V46.2941ZM71.1383 49.8235H67.6089V46.2941H71.1383V49.8235ZM71.1383 53.3529H67.6089V49.8235H71.1383V53.3529ZM67.6089 53.3529H64.0795V49.8235H67.6089V53.3529ZM67.6089 56.8824H64.0795V53.3529H67.6089V56.8824ZM71.1383 56.8824H67.6089V53.3529H71.1383V56.8824ZM71.1383 60.4118H67.6089V56.8824H71.1383V60.4118ZM67.6089 60.4118H64.0795V56.8824H67.6089V60.4118ZM67.6089 63.9412H64.0795V60.4118H67.6089V63.9412ZM67.6089 67.4706H64.0795V63.9412H67.6089V67.4706ZM64.0795 67.4706H60.5501V63.9412H64.0795V67.4706ZM60.5501 67.4706H57.0207V63.9412H60.5501V67.4706ZM57.0207 67.4706H53.4913V63.9412H57.0207V67.4706ZM57.0207 63.9412H53.4913V60.4118H57.0207V63.9412ZM60.5501 60.4118H57.0207V56.8824H60.5501V60.4118ZM64.0795 60.4118H60.5501V56.8824H64.0795V60.4118ZM60.5501 56.8824H57.0207V53.3529H60.5501V56.8824ZM60.5501 53.3529H57.0207V49.8235H60.5501V53.3529ZM60.5501 49.8235H57.0207V46.2941H60.5501V49.8235ZM60.5501 46.2941H57.0207V42.7647H60.5501V46.2941ZM60.5501 42.7647H57.0207V39.2353H60.5501V42.7647ZM60.5501 39.2353H57.0207V35.7059H60.5501V39.2353ZM60.5501 35.7059H57.0207V32.1765H60.5501V35.7059ZM60.5501 32.1765H57.0207V28.6471H60.5501V32.1765ZM57.0207 32.1765H53.4913V28.6471H57.0207V32.1765ZM57.0207 28.6471H53.4913V25.1176H57.0207V28.6471ZM53.4913 28.6471H49.9619V25.1176H53.4913V28.6471ZM49.9619 28.6471H46.4324V25.1176H49.9619V28.6471ZM46.4324 28.6471H42.903V25.1176H46.4324V28.6471ZM46.4324 25.1176H42.903V21.5882H46.4324V25.1176ZM49.9619 25.1176H46.4324V21.5882H49.9619V25.1176ZM53.4913 25.1176H49.9619V21.5882H53.4913V25.1176ZM57.0207 25.1176H53.4913V21.5882H57.0207V25.1176ZM60.5501 28.6471H57.0207V25.1176H60.5501V28.6471ZM64.0795 28.6471H60.5501V25.1176H64.0795V28.6471ZM64.0795 32.1765H60.5501V28.6471H64.0795V32.1765ZM64.0795 35.7059H60.5501V32.1765H64.0795V35.7059ZM64.0795 39.2353H60.5501V35.7059H64.0795V39.2353ZM67.6089 39.2353H64.0795V35.7059H67.6089V39.2353ZM67.6089 35.7059H64.0795V32.1765H67.6089V35.7059ZM67.6089 42.7647H64.0795V39.2353H67.6089V42.7647ZM67.6089 46.2941H64.0795V42.7647H67.6089V46.2941ZM67.6089 49.8235H64.0795V46.2941H67.6089V49.8235ZM64.0795 49.8235H60.5501V46.2941H64.0795V49.8235ZM64.0795 46.2941H60.5501V42.7647H64.0795V46.2941ZM64.0795 42.7647H60.5501V39.2353H64.0795V42.7647ZM64.0795 53.3529H60.5501V49.8235H64.0795V53.3529ZM64.0795 56.8824H60.5501V53.3529H64.0795V56.8824ZM64.0795 63.9412H60.5501V60.4118H64.0795V63.9412ZM60.5501 63.9412H57.0207V60.4118H60.5501V63.9412ZM53.4913 67.4706H49.9619V63.9412H53.4913V67.4706ZM49.9619 67.4706H46.4324V63.9412H49.9619V67.4706ZM46.4324 67.4706H42.903V63.9412H46.4324V67.4706ZM42.903 67.4706H39.3736V63.9412H42.903V67.4706ZM42.903 63.9412H39.3736V60.4118H42.903V63.9412ZM46.4324 63.9412H42.903V60.4118H46.4324V63.9412ZM49.9619 63.9412H46.4324V60.4118H49.9619V63.9412ZM53.4913 63.9412H49.9619V60.4118H53.4913V63.9412ZM32.3148 53.3529H28.7854V49.8235H32.3148V53.3529ZM35.8442 53.3529H32.3148V49.8235H35.8442V53.3529ZM39.3736 53.3529H35.8442V49.8235H39.3736V53.3529ZM32.3148 49.8235H28.7854V46.2941H32.3148V49.8235ZM35.8442 49.8235H32.3148V46.2941H35.8442V49.8235ZM39.3736 49.8235H35.8442V46.2941H39.3736V49.8235ZM42.903 49.8235H39.3736V46.2941H42.903V49.8235ZM46.4324 49.8235H42.903V46.2941H46.4324V49.8235ZM49.9619 49.8235H46.4324V46.2941H49.9619V49.8235ZM53.4913 49.8235H49.9619V46.2941H53.4913V49.8235ZM57.0207 49.8235H53.4913V46.2941H57.0207V49.8235ZM57.0207 46.2941H53.4913V42.7647H57.0207V46.2941ZM53.4913 46.2941H49.9619V42.7647H53.4913V46.2941ZM49.9619 46.2941H46.4324V42.7647H49.9619V46.2941ZM46.4324 46.2941H42.903V42.7647H46.4324V46.2941ZM42.903 46.2941H39.3736V42.7647H42.903V46.2941ZM39.3736 46.2941H35.8442V42.7647H39.3736V46.2941ZM67.6089 60.4118H71.1383V63.9412H67.6089V60.4118ZM67.6089 63.9412H71.1383V67.4706H67.6089V63.9412ZM67.6089 67.4706H71.1383V71H67.6089V67.4706ZM64.0795 67.4706H67.6089V71H64.0795V67.4706ZM60.5501 67.4706H64.0795V71H60.5501V67.4706ZM39.3736 49.8235H42.903V53.3529H39.3736V49.8235ZM81.7403 18.0588H85.2698V21.5882H81.7403V18.0588ZM85.2698 18.0588H88.7992V21.5882H85.2698V18.0588ZM88.7992 18.0588H92.3286V21.5882H88.7992V18.0588ZM81.7403 25.1176H85.2698V28.6471H81.7403V25.1176ZM81.7403 21.5882H85.2698V25.1176H81.7403V21.5882ZM88.7992 67.4706H92.3286V71H88.7992V67.4706ZM85.2698 67.4706H88.7992V71H85.2698V67.4706ZM81.7403 63.9412H85.2698V67.4706H81.7403V63.9412ZM81.7403 60.4118H85.2698V63.9412H81.7403V60.4118ZM81.7403 67.4706H85.2698V71H81.7403V67.4706ZM99.3874 18.0588H102.917V21.5882H99.3874V18.0588ZM92.3286 18.0588H95.858V21.5882H92.3286V18.0588ZM102.917 18.0588H106.446V21.5882H102.917V18.0588ZM106.446 18.0588H109.976V21.5882H106.446V18.0588ZM109.976 18.0588H113.505V21.5882H109.976V18.0588ZM113.505 21.5882H117.034V25.1176H113.505V21.5882ZM113.505 25.1176H117.034V28.6471H113.505V25.1176ZM117.034 25.1176H120.564V28.6471H117.034V25.1176ZM113.505 28.6471H117.034V32.1765H113.505V28.6471ZM109.976 28.6471H113.505V32.1765H109.976V28.6471ZM92.3286 67.4706H95.858V71H92.3286V67.4706ZM92.3286 63.9412H95.858V67.4706H92.3286V63.9412ZM88.7992 63.9412H92.3286V67.4706H88.7992V63.9412ZM85.2698 63.9412H88.7992V67.4706H85.2698V63.9412ZM85.2698 35.7059H88.7992V39.2353H85.2698V35.7059ZM85.2698 32.1765H88.7992V35.7059H85.2698V32.1765ZM81.7403 28.6471H85.2698V32.1765H81.7403V28.6471ZM85.2698 25.1176H88.7992V28.6471H85.2698V25.1176ZM88.7992 21.5882H92.3286V25.1176H88.7992V21.5882ZM92.3286 21.5882H95.858V25.1176H92.3286V21.5882ZM95.858 21.5882H99.3874V25.1176H95.858V21.5882ZM95.858 25.1176H99.3874V28.6471H95.858V25.1176ZM95.858 28.6471H99.3874V32.1765H95.858V28.6471ZM92.3286 28.6471H95.858V32.1765H92.3286V28.6471ZM88.7992 28.6471H92.3286V32.1765H88.7992V28.6471ZM92.3286 32.1765H95.858V35.7059H92.3286V32.1765ZM92.3286 35.7059H95.858V39.2353H92.3286V35.7059ZM92.3286 39.2353H95.858V42.7647H92.3286V39.2353ZM92.3286 60.4118H95.858V63.9412H92.3286V60.4118ZM88.7992 60.4118H92.3286V63.9412H88.7992V60.4118ZM88.7992 35.7059H92.3286V39.2353H88.7992V35.7059ZM88.7992 32.1765H92.3286V35.7059H88.7992V32.1765ZM88.7992 25.1176H92.3286V28.6471H88.7992V25.1176ZM92.3286 25.1176H95.858V28.6471H92.3286V25.1176ZM99.3874 21.5882H102.917V25.1176H99.3874V21.5882ZM102.917 21.5882H106.446V25.1176H102.917V21.5882ZM106.446 21.5882H109.976V25.1176H106.446V21.5882ZM109.976 21.5882H113.505V25.1176H109.976V21.5882ZM109.976 25.1176H113.505V28.6471H109.976V25.1176ZM106.446 25.1176H109.976V28.6471H106.446V25.1176ZM102.917 25.1176H106.446V28.6471H102.917V25.1176ZM99.3874 25.1176H102.917V28.6471H99.3874V25.1176ZM85.2698 21.5882H88.7992V25.1176H85.2698V21.5882ZM85.2698 60.4118H88.7992V63.9412H85.2698V60.4118ZM85.2698 28.6471H88.7992V32.1765H85.2698V28.6471ZM81.7403 32.1765H85.2698V35.7059H81.7403V32.1765ZM81.7403 35.7059H85.2698V39.2353H81.7403V35.7059ZM81.7403 56.8824H85.2698V60.4118H81.7403V56.8824ZM85.2698 56.8824H88.7992V60.4118H85.2698V56.8824ZM88.7992 56.8824H92.3286V60.4118H88.7992V56.8824ZM92.3286 56.8824H95.858V60.4118H92.3286V56.8824ZM88.7992 39.2353H92.3286V42.7647H88.7992V39.2353ZM85.2698 39.2353H88.7992V42.7647H85.2698V39.2353ZM81.7403 39.2353H85.2698V42.7647H81.7403V39.2353ZM81.7403 42.7647H85.2698V46.2941H81.7403V42.7647ZM81.7403 46.2941H85.2698V49.8235H81.7403V46.2941ZM81.7403 49.8235H85.2698V53.3529H81.7403V49.8235ZM85.2698 49.8235H88.7992V53.3529H85.2698V49.8235ZM85.2698 53.3529H88.7992V56.8824H85.2698V53.3529ZM88.7992 53.3529H92.3286V56.8824H88.7992V53.3529ZM81.7403 53.3529H85.2698V56.8824H81.7403V53.3529ZM92.3286 53.3529H95.858V56.8824H92.3286V53.3529ZM92.3286 49.8235H95.858V53.3529H92.3286V49.8235ZM92.3286 46.2941H95.858V49.8235H92.3286V46.2941ZM92.3286 42.7647H95.858V46.2941H92.3286V42.7647ZM88.7992 42.7647H92.3286V46.2941H88.7992V42.7647ZM85.2698 42.7647H88.7992V46.2941H85.2698V42.7647ZM85.2698 46.2941H88.7992V49.8235H85.2698V46.2941ZM88.7992 49.8235H92.3286V53.3529H88.7992V49.8235ZM88.7992 46.2941H92.3286V49.8235H88.7992V46.2941ZM106.446 28.6471H109.976V32.1765H106.446V28.6471ZM109.976 32.1765H113.505V35.7059H109.976V32.1765ZM152.28 71H148.751V67.4706H152.28V71ZM159.339 71H155.81V67.4706H159.339V71ZM148.751 71H145.222V67.4706H148.751V71ZM145.222 71H141.692V67.4706H145.222V71ZM141.692 71H138.163V67.4706H141.692V71ZM138.163 71H134.633V67.4706H138.163V71ZM134.633 67.4706H131.104V63.9412H134.633V67.4706ZM138.163 67.4706H134.633V63.9412H138.163V67.4706ZM138.163 63.9412H134.633V60.4118H138.163V63.9412ZM131.104 67.4706H127.574V63.9412H131.104V67.4706ZM131.104 63.9412H127.574V60.4118H131.104V63.9412ZM134.633 63.9412H131.104V60.4118H134.633V63.9412ZM138.163 60.4118H134.633V56.8824H138.163V60.4118ZM141.692 60.4118H138.163V56.8824H141.692V60.4118ZM134.633 60.4118H131.104V56.8824H134.633V60.4118ZM131.104 60.4118H127.574V56.8824H131.104V60.4118ZM127.574 60.4118H124.045V56.8824H127.574V60.4118ZM127.574 56.8824H124.045V53.3529H127.574V56.8824ZM127.574 35.7059H124.045V32.1765H127.574V35.7059ZM127.574 32.1765H124.045V28.6471H127.574V32.1765ZM131.104 32.1765H127.574V28.6471H131.104V32.1765ZM131.104 28.6471H127.574V25.1176H131.104V28.6471ZM131.104 25.1176H127.574V21.5882H131.104V25.1176ZM134.633 25.1176H131.104V21.5882H134.633V25.1176ZM138.163 25.1176H134.633V21.5882H138.163V25.1176ZM141.692 28.6471H138.163V25.1176H141.692V28.6471ZM141.692 32.1765H138.163V28.6471H141.692V32.1765ZM138.163 32.1765H134.633V28.6471H138.163V32.1765ZM138.163 28.6471H134.633V25.1176H138.163V28.6471ZM134.633 28.6471H131.104V25.1176H134.633V28.6471ZM134.633 32.1765H131.104V28.6471H134.633V32.1765ZM134.633 35.7059H131.104V32.1765H134.633V35.7059ZM138.163 35.7059H134.633V32.1765H138.163V35.7059ZM138.163 56.8824H134.633V53.3529H138.163V56.8824ZM134.633 56.8824H131.104V53.3529H134.633V56.8824ZM131.104 35.7059H127.574V32.1765H131.104V35.7059ZM131.104 56.8824H127.574V53.3529H131.104V56.8824ZM141.692 25.1176H138.163V21.5882H141.692V25.1176ZM141.692 21.5882H138.163V18.0588H141.692V21.5882ZM138.163 21.5882H134.633V18.0588H138.163V21.5882ZM145.222 21.5882H141.692V18.0588H145.222V21.5882ZM148.751 21.5882H145.222V18.0588H148.751V21.5882ZM152.28 21.5882H148.751V18.0588H152.28V21.5882ZM155.81 21.5882H152.28V18.0588H155.81V21.5882ZM159.339 21.5882H155.81V18.0588H159.339V21.5882ZM159.339 25.1176H155.81V21.5882H159.339V25.1176ZM162.869 25.1176H159.339V21.5882H162.869V25.1176ZM166.398 25.1176H162.869V21.5882H166.398V25.1176ZM166.398 28.6471H162.869V25.1176H166.398V28.6471ZM169.927 32.1765H166.398V28.6471H169.927V32.1765ZM166.398 32.1765H162.869V28.6471H166.398V32.1765ZM169.927 35.7059H166.398V32.1765H169.927V35.7059ZM169.927 39.2353H166.398V35.7059H169.927V39.2353ZM169.927 42.7647H166.398V39.2353H169.927V42.7647ZM169.927 46.2941H166.398V42.7647H169.927V46.2941ZM169.927 49.8235H166.398V46.2941H169.927V49.8235ZM169.927 53.3529H166.398V49.8235H169.927V53.3529ZM166.398 53.3529H162.869V49.8235H166.398V53.3529ZM166.398 56.8824H162.869V53.3529H166.398V56.8824ZM169.927 56.8824H166.398V53.3529H169.927V56.8824ZM169.927 60.4118H166.398V56.8824H169.927V60.4118ZM166.398 60.4118H162.869V56.8824H166.398V60.4118ZM166.398 63.9412H162.869V60.4118H166.398V63.9412ZM166.398 67.4706H162.869V63.9412H166.398V67.4706ZM162.869 67.4706H159.339V63.9412H162.869V67.4706ZM159.339 67.4706H155.81V63.9412H159.339V67.4706ZM155.81 67.4706H152.28V63.9412H155.81V67.4706ZM155.81 63.9412H152.28V60.4118H155.81V63.9412ZM159.339 60.4118H155.81V56.8824H159.339V60.4118ZM162.869 60.4118H159.339V56.8824H162.869V60.4118ZM159.339 56.8824H155.81V53.3529H159.339V56.8824ZM159.339 53.3529H155.81V49.8235H159.339V53.3529ZM159.339 49.8235H155.81V46.2941H159.339V49.8235ZM159.339 46.2941H155.81V42.7647H159.339V46.2941ZM159.339 42.7647H155.81V39.2353H159.339V42.7647ZM159.339 39.2353H155.81V35.7059H159.339V39.2353ZM159.339 35.7059H155.81V32.1765H159.339V35.7059ZM159.339 32.1765H155.81V28.6471H159.339V32.1765ZM155.81 32.1765H152.28V28.6471H155.81V32.1765ZM155.81 28.6471H152.28V25.1176H155.81V28.6471ZM152.28 28.6471H148.751V25.1176H152.28V28.6471ZM148.751 28.6471H145.222V25.1176H148.751V28.6471ZM145.222 28.6471H141.692V25.1176H145.222V28.6471ZM145.222 25.1176H141.692V21.5882H145.222V25.1176ZM148.751 25.1176H145.222V21.5882H148.751V25.1176ZM152.28 25.1176H148.751V21.5882H152.28V25.1176ZM155.81 25.1176H152.28V21.5882H155.81V25.1176ZM159.339 28.6471H155.81V25.1176H159.339V28.6471ZM162.869 28.6471H159.339V25.1176H162.869V28.6471ZM162.869 32.1765H159.339V28.6471H162.869V32.1765ZM162.869 35.7059H159.339V32.1765H162.869V35.7059ZM162.869 39.2353H159.339V35.7059H162.869V39.2353ZM166.398 39.2353H162.869V35.7059H166.398V39.2353ZM166.398 35.7059H162.869V32.1765H166.398V35.7059ZM166.398 42.7647H162.869V39.2353H166.398V42.7647ZM166.398 46.2941H162.869V42.7647H166.398V46.2941ZM166.398 49.8235H162.869V46.2941H166.398V49.8235ZM162.869 49.8235H159.339V46.2941H162.869V49.8235ZM162.869 46.2941H159.339V42.7647H162.869V46.2941ZM162.869 42.7647H159.339V39.2353H162.869V42.7647ZM162.869 53.3529H159.339V49.8235H162.869V53.3529ZM162.869 56.8824H159.339V53.3529H162.869V56.8824ZM162.869 63.9412H159.339V60.4118H162.869V63.9412ZM159.339 63.9412H155.81V60.4118H159.339V63.9412ZM152.28 67.4706H148.751V63.9412H152.28V67.4706ZM148.751 67.4706H145.222V63.9412H148.751V67.4706ZM145.222 67.4706H141.692V63.9412H145.222V67.4706ZM141.692 67.4706H138.163V63.9412H141.692V67.4706ZM141.692 63.9412H138.163V60.4118H141.692V63.9412ZM145.222 63.9412H141.692V60.4118H145.222V63.9412ZM148.751 63.9412H145.222V60.4118H148.751V63.9412ZM152.28 63.9412H148.751V60.4118H152.28V63.9412ZM131.104 53.3529H127.574V49.8235H131.104V53.3529ZM134.633 53.3529H131.104V49.8235H134.633V53.3529ZM138.163 53.3529H134.633V49.8235H138.163V53.3529ZM131.104 49.8235H127.574V46.2941H131.104V49.8235ZM134.633 49.8235H131.104V46.2941H134.633V49.8235ZM138.163 49.8235H134.633V46.2941H138.163V49.8235ZM141.692 49.8235H138.163V46.2941H141.692V49.8235ZM145.222 49.8235H141.692V46.2941H145.222V49.8235ZM148.751 49.8235H145.222V46.2941H148.751V49.8235ZM152.28 49.8235H148.751V46.2941H152.28V49.8235ZM155.81 49.8235H152.28V46.2941H155.81V49.8235ZM155.81 46.2941H152.28V42.7647H155.81V46.2941ZM152.28 46.2941H148.751V42.7647H152.28V46.2941ZM148.751 46.2941H145.222V42.7647H148.751V46.2941ZM145.222 46.2941H141.692V42.7647H145.222V46.2941ZM141.692 46.2941H138.163V42.7647H141.692V46.2941ZM138.163 46.2941H134.633V42.7647H138.163V46.2941ZM166.398 60.4118H169.927V63.9412H166.398V60.4118ZM166.398 63.9412H169.927V67.4706H166.398V63.9412ZM166.398 67.4706H169.927V71H166.398V67.4706ZM162.869 67.4706H166.398V71H162.869V67.4706ZM159.339 67.4706H162.869V71H159.339V67.4706ZM138.163 49.8235H141.692V53.3529H138.163V49.8235ZM247.609 56.8824H251.138V60.4118H247.609V56.8824ZM244.08 56.8824H247.609V60.4118H244.08V56.8824ZM240.55 56.8824H244.08V60.4118H240.55V56.8824ZM240.55 60.4118H244.08V63.9412H240.55V60.4118ZM244.08 60.4118H247.609V63.9412H244.08V60.4118ZM240.55 63.9412H244.08V67.4706H240.55V63.9412ZM237.021 63.9412H240.55V67.4706H237.021V63.9412ZM244.08 63.9412H247.609V67.4706H244.08V63.9412ZM237.021 67.4706H240.55V71H237.021V67.4706ZM233.491 67.4706H237.021V71H233.491V67.4706ZM229.962 67.4706H233.491V71H229.962V67.4706ZM226.432 67.4706H229.962V71H226.432V67.4706ZM222.903 67.4706H226.432V71H222.903V67.4706ZM219.374 67.4706H222.903V71H219.374V67.4706ZM215.844 67.4706H219.374V71H215.844V67.4706ZM215.844 63.9412H219.374V67.4706H215.844V63.9412ZM212.315 63.9412H215.844V67.4706H212.315V63.9412ZM208.785 63.9412H212.315V67.4706H208.785V63.9412ZM208.785 60.4118H212.315V63.9412H208.785V60.4118ZM212.315 60.4118H215.844V63.9412H212.315V60.4118ZM215.844 60.4118H219.374V63.9412H215.844V60.4118ZM219.374 60.4118H222.903V63.9412H219.374V60.4118ZM222.903 60.4118H226.432V63.9412H222.903V60.4118ZM226.432 60.4118H229.962V63.9412H226.432V60.4118ZM229.962 60.4118H233.491V63.9412H229.962V60.4118ZM233.491 60.4118H237.021V63.9412H233.491V60.4118ZM237.021 60.4118H240.55V63.9412H237.021V60.4118ZM233.491 63.9412H237.021V67.4706H233.491V63.9412ZM229.962 63.9412H233.491V67.4706H229.962V63.9412ZM226.432 63.9412H229.962V67.4706H226.432V63.9412ZM222.903 63.9412H226.432V67.4706H222.903V63.9412ZM219.374 63.9412H222.903V67.4706H219.374V63.9412ZM212.315 56.8824H215.844V60.4118H212.315V56.8824ZM208.785 56.8824H212.315V60.4118H208.785V56.8824ZM205.256 56.8824H208.785V60.4118H205.256V56.8824ZM212.315 53.3529H215.844V56.8824H212.315V53.3529ZM215.844 53.3529H219.374V56.8824H215.844V53.3529ZM219.374 53.3529H222.903V56.8824H219.374V53.3529ZM219.374 56.8824H222.903V60.4118H219.374V56.8824ZM215.844 56.8824H219.374V60.4118H215.844V56.8824ZM208.785 53.3529H212.315V56.8824H208.785V53.3529ZM208.785 49.8235H212.315V53.3529H208.785V49.8235ZM205.256 49.8235H208.785V53.3529H205.256V49.8235ZM205.256 46.2941H208.785V49.8235H205.256V46.2941ZM205.256 53.3529H208.785V56.8824H205.256V53.3529ZM205.256 42.7647H208.785V46.2941H205.256V42.7647ZM208.785 42.7647H212.315V46.2941H208.785V42.7647ZM212.315 42.7647H215.844V46.2941H212.315V42.7647ZM215.844 42.7647H219.374V46.2941H215.844V42.7647ZM215.844 46.2941H219.374V49.8235H215.844V46.2941ZM215.844 49.8235H219.374V53.3529H215.844V49.8235ZM212.315 46.2941H215.844V49.8235H212.315V46.2941ZM208.785 46.2941H212.315V49.8235H208.785V46.2941ZM212.315 49.8235H215.844V53.3529H212.315V49.8235ZM222.903 56.8824H226.432V60.4118H222.903V56.8824ZM226.432 56.8824H229.962V60.4118H226.432V56.8824ZM229.962 56.8824H233.491V60.4118H229.962V56.8824ZM233.491 56.8824H237.021V60.4118H233.491V56.8824ZM237.021 56.8824H240.55V60.4118H237.021V56.8824ZM237.021 53.3529H240.55V56.8824H237.021V53.3529ZM233.491 53.3529H237.021V56.8824H233.491V53.3529ZM240.55 53.3529H244.08V56.8824H240.55V53.3529ZM244.08 53.3529H247.609V56.8824H244.08V53.3529ZM244.08 49.8235H247.609V53.3529H244.08V49.8235ZM247.609 49.8235H251.138V53.3529H247.609V49.8235ZM247.609 46.2941H251.138V49.8235H247.609V46.2941ZM247.609 53.3529H251.138V56.8824H247.609V53.3529ZM247.609 42.7647H251.138V46.2941H247.609V42.7647ZM247.609 39.2353H251.138V42.7647H247.609V39.2353ZM247.609 35.7059H251.138V39.2353H247.609V35.7059ZM247.609 32.1765H251.138V35.7059H247.609V32.1765ZM237.021 32.1765H240.55V35.7059H237.021V32.1765ZM237.021 35.7059H240.55V39.2353H237.021V35.7059ZM237.021 39.2353H240.55V42.7647H237.021V39.2353ZM237.021 42.7647H240.55V46.2941H237.021V42.7647ZM237.021 46.2941H240.55V49.8235H237.021V46.2941ZM237.021 49.8235H240.55V53.3529H237.021V49.8235ZM240.55 49.8235H244.08V53.3529H240.55V49.8235ZM240.55 46.2941H244.08V49.8235H240.55V46.2941ZM244.08 46.2941H247.609V49.8235H244.08V46.2941ZM244.08 42.7647H247.609V46.2941H244.08V42.7647ZM244.08 39.2353H247.609V42.7647H244.08V39.2353ZM244.08 35.7059H247.609V39.2353H244.08V35.7059ZM240.55 32.1765H244.08V35.7059H240.55V32.1765ZM240.55 35.7059H244.08V39.2353H240.55V35.7059ZM240.55 39.2353H244.08V42.7647H240.55V39.2353ZM240.55 42.7647H244.08V46.2941H240.55V42.7647ZM244.08 32.1765H247.609V35.7059H244.08V32.1765ZM247.609 21.5882H251.138V25.1176H247.609V21.5882ZM247.609 18.0588H251.138V21.5882H247.609V18.0588ZM247.609 14.5294H251.138V18.0588H247.609V14.5294ZM247.609 11H251.138V14.5294H247.609V11ZM244.08 11H247.609V14.5294H244.08V11ZM244.08 7.47059H247.609V11H244.08V7.47059ZM244.08 3.94118H247.609V7.47059H244.08V3.94118ZM240.55 3.94118H244.08V7.47059H240.55V3.94118ZM237.021 3.94118H240.55V7.47059H237.021V3.94118ZM240.55 21.5882H244.08V25.1176H240.55V21.5882ZM240.55 18.0588H244.08V21.5882H240.55V18.0588ZM244.08 18.0588H247.609V21.5882H244.08V18.0588ZM244.08 14.5294H247.609V18.0588H244.08V14.5294ZM244.08 21.5882H247.609V25.1176H244.08V21.5882ZM237.021 21.5882H240.55V25.1176H237.021V21.5882ZM240.55 14.5294H244.08V18.0588H240.55V14.5294ZM237.021 14.5294H240.55V18.0588H237.021V14.5294ZM237.021 18.0588H240.55V21.5882H237.021V18.0588ZM233.491 14.5294H237.021V18.0588H233.491V14.5294ZM233.491 11H237.021V14.5294H233.491V11ZM237.021 7.47059H240.55V11H237.021V7.47059ZM240.55 7.47059H244.08V11H240.55V7.47059ZM240.55 11H244.08V14.5294H240.55V11ZM237.021 11H240.55V14.5294H237.021V11ZM233.491 7.47059H237.021V11H233.491V7.47059ZM233.491 3.94118H237.021V7.47059H233.491V3.94118ZM233.491 0.411769H237.021V3.94118H233.491V0.411769ZM237.021 0.411769H240.55V3.94118H237.021V0.411769ZM229.962 0.411769H233.491V3.94118H229.962V0.411769ZM226.432 0.411769H229.962V3.94118H226.432V0.411769ZM222.903 0.411769H226.432V3.94118H222.903V0.411769ZM219.374 0.411769H222.903V3.94118H219.374V0.411769ZM219.374 3.94118H222.903V7.47059H219.374V3.94118ZM215.844 3.94118H219.374V7.47059H215.844V3.94118ZM215.844 0.411769H219.374V3.94118H215.844V0.411769ZM212.315 3.94118H215.844V7.47059H212.315V3.94118ZM208.785 3.94118H212.315V7.47059H208.785V3.94118ZM208.785 7.47059H212.315V11H208.785V7.47059ZM208.785 11H212.315V14.5294H208.785V11ZM205.256 11H208.785V14.5294H205.256V11ZM205.256 14.5294H208.785V18.0588H205.256V14.5294ZM208.785 14.5294H212.315V18.0588H208.785V14.5294ZM212.315 14.5294H215.844V18.0588H212.315V14.5294ZM215.844 14.5294H219.374V18.0588H215.844V14.5294ZM219.374 14.5294H222.903V18.0588H219.374V14.5294ZM219.374 11H222.903V14.5294H219.374V11ZM222.903 11H226.432V14.5294H222.903V11ZM226.432 11H229.962V14.5294H226.432V11ZM229.962 11H233.491V14.5294H229.962V11ZM229.962 3.94118H233.491V7.47059H229.962V3.94118ZM229.962 7.47059H233.491V11H229.962V7.47059ZM226.432 7.47059H229.962V11H226.432V7.47059ZM222.903 7.47059H226.432V11H222.903V7.47059ZM226.432 3.94118H229.962V7.47059H226.432V3.94118ZM222.903 3.94118H226.432V7.47059H222.903V3.94118ZM219.374 7.47059H222.903V11H219.374V7.47059ZM215.844 7.47059H219.374V11H215.844V7.47059ZM215.844 11H219.374V14.5294H215.844V11ZM212.315 11H215.844V14.5294H212.315V11ZM212.315 7.47059H215.844V11H212.315V7.47059ZM212.315 18.0588H215.844V21.5882H212.315V18.0588ZM212.315 21.5882H215.844V25.1176H212.315V21.5882ZM212.315 25.1176H215.844V28.6471H212.315V25.1176ZM212.315 28.6471H215.844V32.1765H212.315V28.6471ZM215.844 28.6471H219.374V32.1765H215.844V28.6471ZM215.844 32.1765H219.374V35.7059H215.844V32.1765ZM215.844 25.1176H219.374V28.6471H215.844V25.1176ZM215.844 21.5882H219.374V25.1176H215.844V21.5882ZM215.844 18.0588H219.374V21.5882H215.844V18.0588ZM215.844 35.7059H219.374V39.2353H215.844V35.7059ZM215.844 39.2353H219.374V42.7647H215.844V39.2353ZM212.315 39.2353H215.844V42.7647H212.315V39.2353ZM208.785 39.2353H212.315V42.7647H208.785V39.2353ZM205.256 35.7059H208.785V39.2353H205.256V35.7059ZM205.256 39.2353H208.785V42.7647H205.256V39.2353ZM205.256 32.1765H208.785V35.7059H205.256V32.1765ZM205.256 28.6471H208.785V32.1765H205.256V28.6471ZM205.256 25.1176H208.785V28.6471H205.256V25.1176ZM205.256 21.5882H208.785V25.1176H205.256V21.5882ZM205.256 18.0588H208.785V21.5882H205.256V18.0588ZM208.785 21.5882H212.315V25.1176H208.785V21.5882ZM208.785 25.1176H212.315V28.6471H208.785V25.1176ZM208.785 28.6471H212.315V32.1765H208.785V28.6471ZM208.785 32.1765H212.315V35.7059H208.785V32.1765ZM208.785 35.7059H212.315V39.2353H208.785V35.7059ZM212.315 35.7059H215.844V39.2353H212.315V35.7059ZM212.315 32.1765H215.844V35.7059H212.315V32.1765ZM208.785 18.0588H212.315V21.5882H208.785V18.0588ZM233.491 32.1765H237.021V35.7059H233.491V32.1765ZM229.962 32.1765H233.491V35.7059H229.962V32.1765ZM226.432 32.1765H229.962V35.7059H226.432V32.1765ZM226.432 35.7059H229.962V39.2353H226.432V35.7059ZM226.432 39.2353H229.962V42.7647H226.432V39.2353ZM226.432 42.7647H229.962V46.2941H226.432V42.7647ZM229.962 42.7647H233.491V46.2941H229.962V42.7647ZM233.491 42.7647H237.021V46.2941H233.491V42.7647ZM233.491 39.2353H237.021V42.7647H233.491V39.2353ZM229.962 39.2353H233.491V42.7647H229.962V39.2353ZM229.962 35.7059H233.491V39.2353H229.962V35.7059ZM233.491 35.7059H237.021V39.2353H233.491V35.7059ZM289.976 71H286.446V67.4706H289.976V71ZM297.034 71H293.505V67.4706H297.034V71ZM286.446 71H282.917V67.4706H286.446V71ZM282.917 71H279.387V67.4706H282.917V71ZM279.387 71H275.858V67.4706H279.387V71ZM275.858 71H272.329V67.4706H275.858V71ZM272.329 67.4706H268.799V63.9412H272.329V67.4706ZM275.858 67.4706H272.329V63.9412H275.858V67.4706ZM275.858 63.9412H272.329V60.4118H275.858V63.9412ZM268.799 67.4706H265.27V63.9412H268.799V67.4706ZM268.799 63.9412H265.27V60.4118H268.799V63.9412ZM272.329 63.9412H268.799V60.4118H272.329V63.9412ZM275.858 60.4118H272.329V56.8824H275.858V60.4118ZM279.387 60.4118H275.858V56.8824H279.387V60.4118ZM272.329 60.4118H268.799V56.8824H272.329V60.4118ZM268.799 60.4118H265.27V56.8824H268.799V60.4118ZM265.27 60.4118H261.74V56.8824H265.27V60.4118ZM265.27 56.8824H261.74V53.3529H265.27V56.8824ZM265.27 35.7059H261.74V32.1765H265.27V35.7059ZM265.27 32.1765H261.74V28.6471H265.27V32.1765ZM268.799 32.1765H265.27V28.6471H268.799V32.1765ZM268.799 28.6471H265.27V25.1176H268.799V28.6471ZM268.799 25.1176H265.27V21.5882H268.799V25.1176ZM272.329 25.1176H268.799V21.5882H272.329V25.1176ZM275.858 25.1176H272.329V21.5882H275.858V25.1176ZM279.387 28.6471H275.858V25.1176H279.387V28.6471ZM279.387 32.1765H275.858V28.6471H279.387V32.1765ZM275.858 32.1765H272.329V28.6471H275.858V32.1765ZM275.858 28.6471H272.329V25.1176H275.858V28.6471ZM272.329 28.6471H268.799V25.1176H272.329V28.6471ZM272.329 32.1765H268.799V28.6471H272.329V32.1765ZM272.329 35.7059H268.799V32.1765H272.329V35.7059ZM275.858 35.7059H272.329V32.1765H275.858V35.7059ZM275.858 56.8824H272.329V53.3529H275.858V56.8824ZM272.329 56.8824H268.799V53.3529H272.329V56.8824ZM268.799 35.7059H265.27V32.1765H268.799V35.7059ZM268.799 56.8824H265.27V53.3529H268.799V56.8824ZM279.387 25.1176H275.858V21.5882H279.387V25.1176ZM279.387 21.5882H275.858V18.0588H279.387V21.5882ZM275.858 21.5882H272.329V18.0588H275.858V21.5882ZM282.917 21.5882H279.387V18.0588H282.917V21.5882ZM286.446 21.5882H282.917V18.0588H286.446V21.5882ZM289.976 21.5882H286.446V18.0588H289.976V21.5882ZM293.505 21.5882H289.976V18.0588H293.505V21.5882ZM297.034 21.5882H293.505V18.0588H297.034V21.5882ZM297.034 25.1176H293.505V21.5882H297.034V25.1176ZM300.564 25.1176H297.034V21.5882H300.564V25.1176ZM304.093 25.1176H300.564V21.5882H304.093V25.1176ZM304.093 28.6471H300.564V25.1176H304.093V28.6471ZM307.623 32.1765H304.093V28.6471H307.623V32.1765ZM304.093 32.1765H300.564V28.6471H304.093V32.1765ZM307.623 35.7059H304.093V32.1765H307.623V35.7059ZM307.623 39.2353H304.093V35.7059H307.623V39.2353ZM307.623 42.7647H304.093V39.2353H307.623V42.7647ZM307.623 46.2941H304.093V42.7647H307.623V46.2941ZM307.623 49.8235H304.093V46.2941H307.623V49.8235ZM307.623 53.3529H304.093V49.8235H307.623V53.3529ZM304.093 53.3529H300.564V49.8235H304.093V53.3529ZM304.093 56.8824H300.564V53.3529H304.093V56.8824ZM307.623 56.8824H304.093V53.3529H307.623V56.8824ZM307.623 60.4118H304.093V56.8824H307.623V60.4118ZM304.093 60.4118H300.564V56.8824H304.093V60.4118ZM304.093 63.9412H300.564V60.4118H304.093V63.9412ZM304.093 67.4706H300.564V63.9412H304.093V67.4706ZM300.564 67.4706H297.034V63.9412H300.564V67.4706ZM297.034 67.4706H293.505V63.9412H297.034V67.4706ZM293.505 67.4706H289.976V63.9412H293.505V67.4706ZM293.505 63.9412H289.976V60.4118H293.505V63.9412ZM297.034 60.4118H293.505V56.8824H297.034V60.4118ZM300.564 60.4118H297.034V56.8824H300.564V60.4118ZM297.034 56.8824H293.505V53.3529H297.034V56.8824ZM297.034 53.3529H293.505V49.8235H297.034V53.3529ZM297.034 49.8235H293.505V46.2941H297.034V49.8235ZM297.034 46.2941H293.505V42.7647H297.034V46.2941ZM297.034 42.7647H293.505V39.2353H297.034V42.7647ZM297.034 39.2353H293.505V35.7059H297.034V39.2353ZM297.034 35.7059H293.505V32.1765H297.034V35.7059ZM297.034 32.1765H293.505V28.6471H297.034V32.1765ZM293.505 32.1765H289.976V28.6471H293.505V32.1765ZM293.505 28.6471H289.976V25.1176H293.505V28.6471ZM289.976 28.6471H286.446V25.1176H289.976V28.6471ZM286.446 28.6471H282.917V25.1176H286.446V28.6471ZM282.917 28.6471H279.387V25.1176H282.917V28.6471ZM282.917 25.1176H279.387V21.5882H282.917V25.1176ZM286.446 25.1176H282.917V21.5882H286.446V25.1176ZM289.976 25.1176H286.446V21.5882H289.976V25.1176ZM293.505 25.1176H289.976V21.5882H293.505V25.1176ZM297.034 28.6471H293.505V25.1176H297.034V28.6471ZM300.564 28.6471H297.034V25.1176H300.564V28.6471ZM300.564 32.1765H297.034V28.6471H300.564V32.1765ZM300.564 35.7059H297.034V32.1765H300.564V35.7059ZM300.564 39.2353H297.034V35.7059H300.564V39.2353ZM304.093 39.2353H300.564V35.7059H304.093V39.2353ZM304.093 35.7059H300.564V32.1765H304.093V35.7059ZM304.093 42.7647H300.564V39.2353H304.093V42.7647ZM304.093 46.2941H300.564V42.7647H304.093V46.2941ZM304.093 49.8235H300.564V46.2941H304.093V49.8235ZM300.564 49.8235H297.034V46.2941H300.564V49.8235ZM300.564 46.2941H297.034V42.7647H300.564V46.2941ZM300.564 42.7647H297.034V39.2353H300.564V42.7647ZM300.564 53.3529H297.034V49.8235H300.564V53.3529ZM300.564 56.8824H297.034V53.3529H300.564V56.8824ZM300.564 63.9412H297.034V60.4118H300.564V63.9412ZM297.034 63.9412H293.505V60.4118H297.034V63.9412ZM289.976 67.4706H286.446V63.9412H289.976V67.4706ZM286.446 67.4706H282.917V63.9412H286.446V67.4706ZM282.917 67.4706H279.387V63.9412H282.917V67.4706ZM279.387 67.4706H275.858V63.9412H279.387V67.4706ZM279.387 63.9412H275.858V60.4118H279.387V63.9412ZM282.917 63.9412H279.387V60.4118H282.917V63.9412ZM286.446 63.9412H282.917V60.4118H286.446V63.9412ZM289.976 63.9412H286.446V60.4118H289.976V63.9412ZM268.799 53.3529H265.27V49.8235H268.799V53.3529ZM272.329 53.3529H268.799V49.8235H272.329V53.3529ZM275.858 53.3529H272.329V49.8235H275.858V53.3529ZM268.799 49.8235H265.27V46.2941H268.799V49.8235ZM272.329 49.8235H268.799V46.2941H272.329V49.8235ZM275.858 49.8235H272.329V46.2941H275.858V49.8235ZM279.387 49.8235H275.858V46.2941H279.387V49.8235ZM282.917 49.8235H279.387V46.2941H282.917V49.8235ZM286.446 49.8235H282.917V46.2941H286.446V49.8235ZM289.976 49.8235H286.446V46.2941H289.976V49.8235ZM293.505 49.8235H289.976V46.2941H293.505V49.8235ZM293.505 46.2941H289.976V42.7647H293.505V46.2941ZM289.976 46.2941H286.446V42.7647H289.976V46.2941ZM286.446 46.2941H282.917V42.7647H286.446V46.2941ZM282.917 46.2941H279.387V42.7647H282.917V46.2941ZM279.387 46.2941H275.858V42.7647H279.387V46.2941ZM275.858 46.2941H272.329V42.7647H275.858V46.2941ZM304.093 60.4118H307.623V63.9412H304.093V60.4118ZM304.093 63.9412H307.623V67.4706H304.093V63.9412ZM304.093 67.4706H307.623V71H304.093V67.4706ZM300.564 67.4706H304.093V71H300.564V67.4706ZM297.034 67.4706H300.564V71H297.034V67.4706ZM275.858 49.8235H279.387V53.3529H275.858V49.8235ZM318.225 18.0588H321.754V21.5882H318.225V18.0588ZM321.754 18.0588H325.284V21.5882H321.754V18.0588ZM325.284 18.0588H328.813V21.5882H325.284V18.0588ZM318.225 25.1176H321.754V28.6471H318.225V25.1176ZM318.225 21.5882H321.754V25.1176H318.225V21.5882ZM325.284 67.4706H328.813V71H325.284V67.4706ZM321.754 67.4706H325.284V71H321.754V67.4706ZM318.225 63.9412H321.754V67.4706H318.225V63.9412ZM318.225 60.4118H321.754V63.9412H318.225V60.4118ZM318.225 67.4706H321.754V71H318.225V67.4706ZM335.872 18.0588H339.401V21.5882H335.872V18.0588ZM328.813 18.0588H332.342V21.5882H328.813V18.0588ZM342.931 18.0588H346.46V21.5882H342.931V18.0588ZM346.46 21.5882H349.989V25.1176H346.46V21.5882ZM342.931 21.5882H346.46V25.1176H342.931V21.5882ZM342.931 25.1176H346.46V28.6471H342.931V25.1176ZM349.989 25.1176H353.519V28.6471H349.989V25.1176ZM346.46 25.1176H349.989V28.6471H346.46V25.1176ZM342.931 28.6471H346.46V32.1765H342.931V28.6471ZM339.401 28.6471H342.931V32.1765H339.401V28.6471ZM346.46 28.6471H349.989V32.1765H346.46V28.6471ZM349.989 28.6471H353.519V32.1765H349.989V28.6471ZM353.519 32.1765H357.048V35.7059H353.519V32.1765ZM353.519 35.7059H357.048V39.2353H353.519V35.7059ZM353.519 39.2353H357.048V42.7647H353.519V39.2353ZM353.519 42.7647H357.048V46.2941H353.519V42.7647ZM353.519 46.2941H357.048V49.8235H353.519V46.2941ZM353.519 49.8235H357.048V53.3529H353.519V49.8235ZM353.519 53.3529H357.048V56.8824H353.519V53.3529ZM353.519 56.8824H357.048V60.4118H353.519V56.8824ZM349.989 56.8824H353.519V60.4118H349.989V56.8824ZM349.989 60.4118H353.519V63.9412H349.989V60.4118ZM349.989 63.9412H353.519V67.4706H349.989V63.9412ZM346.46 63.9412H349.989V67.4706H346.46V63.9412ZM342.931 63.9412H346.46V67.4706H342.931V63.9412ZM342.931 56.8824H346.46V60.4118H342.931V56.8824ZM342.931 60.4118H346.46V63.9412H342.931V60.4118ZM346.46 60.4118H349.989V63.9412H346.46V60.4118ZM346.46 56.8824H349.989V60.4118H346.46V56.8824ZM346.46 53.3529H349.989V56.8824H346.46V53.3529ZM342.931 53.3529H346.46V56.8824H342.931V53.3529ZM342.931 49.8235H346.46V53.3529H342.931V49.8235ZM342.931 46.2941H346.46V49.8235H342.931V46.2941ZM342.931 42.7647H346.46V46.2941H342.931V42.7647ZM342.931 39.2353H346.46V42.7647H342.931V39.2353ZM342.931 35.7059H346.46V39.2353H342.931V35.7059ZM342.931 32.1765H346.46V35.7059H342.931V32.1765ZM346.46 32.1765H349.989V35.7059H346.46V32.1765ZM346.46 35.7059H349.989V39.2353H346.46V35.7059ZM346.46 39.2353H349.989V42.7647H346.46V39.2353ZM346.46 42.7647H349.989V46.2941H346.46V42.7647ZM346.46 46.2941H349.989V49.8235H346.46V46.2941ZM346.46 49.8235H349.989V53.3529H346.46V49.8235ZM349.989 53.3529H353.519V56.8824H349.989V53.3529ZM349.989 49.8235H353.519V53.3529H349.989V49.8235ZM349.989 46.2941H353.519V49.8235H349.989V46.2941ZM349.989 42.7647H353.519V46.2941H349.989V42.7647ZM349.989 39.2353H353.519V42.7647H349.989V39.2353ZM349.989 35.7059H353.519V39.2353H349.989V35.7059ZM349.989 32.1765H353.519V35.7059H349.989V32.1765ZM342.931 67.4706H346.46V71H342.931V67.4706ZM328.813 67.4706H332.342V71H328.813V67.4706ZM328.813 63.9412H332.342V67.4706H328.813V63.9412ZM325.284 63.9412H328.813V67.4706H325.284V63.9412ZM321.754 63.9412H325.284V67.4706H321.754V63.9412ZM321.754 35.7059H325.284V39.2353H321.754V35.7059ZM321.754 32.1765H325.284V35.7059H321.754V32.1765ZM318.225 28.6471H321.754V32.1765H318.225V28.6471ZM321.754 25.1176H325.284V28.6471H321.754V25.1176ZM325.284 21.5882H328.813V25.1176H325.284V21.5882ZM328.813 21.5882H332.342V25.1176H328.813V21.5882ZM332.342 21.5882H335.872V25.1176H332.342V21.5882ZM332.342 25.1176H335.872V28.6471H332.342V25.1176ZM332.342 28.6471H335.872V32.1765H332.342V28.6471ZM328.813 28.6471H332.342V32.1765H328.813V28.6471ZM325.284 28.6471H328.813V32.1765H325.284V28.6471ZM328.813 32.1765H332.342V35.7059H328.813V32.1765ZM328.813 35.7059H332.342V39.2353H328.813V35.7059ZM328.813 39.2353H332.342V42.7647H328.813V39.2353ZM328.813 60.4118H332.342V63.9412H328.813V60.4118ZM325.284 60.4118H328.813V63.9412H325.284V60.4118ZM325.284 35.7059H328.813V39.2353H325.284V35.7059ZM325.284 32.1765H328.813V35.7059H325.284V32.1765ZM325.284 25.1176H328.813V28.6471H325.284V25.1176ZM328.813 25.1176H332.342V28.6471H328.813V25.1176ZM335.872 21.5882H339.401V25.1176H335.872V21.5882ZM339.401 21.5882H342.931V25.1176H339.401V21.5882ZM339.401 25.1176H342.931V28.6471H339.401V25.1176ZM335.872 25.1176H339.401V28.6471H335.872V25.1176ZM321.754 21.5882H325.284V25.1176H321.754V21.5882ZM321.754 60.4118H325.284V63.9412H321.754V60.4118ZM321.754 28.6471H325.284V32.1765H321.754V28.6471ZM318.225 32.1765H321.754V35.7059H318.225V32.1765ZM318.225 35.7059H321.754V39.2353H318.225V35.7059ZM318.225 56.8824H321.754V60.4118H318.225V56.8824ZM321.754 56.8824H325.284V60.4118H321.754V56.8824ZM325.284 56.8824H328.813V60.4118H325.284V56.8824ZM328.813 56.8824H332.342V60.4118H328.813V56.8824ZM325.284 39.2353H328.813V42.7647H325.284V39.2353ZM321.754 39.2353H325.284V42.7647H321.754V39.2353ZM318.225 39.2353H321.754V42.7647H318.225V39.2353ZM318.225 42.7647H321.754V46.2941H318.225V42.7647ZM318.225 46.2941H321.754V49.8235H318.225V46.2941ZM318.225 49.8235H321.754V53.3529H318.225V49.8235ZM321.754 49.8235H325.284V53.3529H321.754V49.8235ZM321.754 53.3529H325.284V56.8824H321.754V53.3529ZM325.284 53.3529H328.813V56.8824H325.284V53.3529ZM318.225 53.3529H321.754V56.8824H318.225V53.3529ZM328.813 53.3529H332.342V56.8824H328.813V53.3529ZM328.813 49.8235H332.342V53.3529H328.813V49.8235ZM328.813 46.2941H332.342V49.8235H328.813V46.2941ZM328.813 42.7647H332.342V46.2941H328.813V42.7647ZM325.284 42.7647H328.813V46.2941H325.284V42.7647ZM321.754 42.7647H325.284V46.2941H321.754V42.7647ZM321.754 46.2941H325.284V49.8235H321.754V46.2941ZM325.284 49.8235H328.813V53.3529H325.284V49.8235ZM325.284 46.2941H328.813V49.8235H325.284V46.2941ZM346.46 67.4706H349.989V71H346.46V67.4706ZM349.989 67.4706H353.519V71H349.989V67.4706ZM353.519 67.4706H357.048V71H353.519V67.4706ZM353.519 63.9412H357.048V67.4706H353.519V63.9412ZM353.519 60.4118H357.048V63.9412H353.519V60.4118ZM357.048 18.0588H360.578V21.5882H357.048V18.0588ZM360.578 18.0588H364.107V21.5882H360.578V18.0588ZM364.107 18.0588H367.636V21.5882H364.107V18.0588ZM367.636 18.0588H371.166V21.5882H367.636V18.0588ZM371.166 21.5882H374.695V25.1176H371.166V21.5882ZM367.636 21.5882H371.166V25.1176H367.636V21.5882ZM367.636 25.1176H371.166V28.6471H367.636V25.1176ZM374.695 21.5882H378.225V25.1176H374.695V21.5882ZM374.695 25.1176H378.225V28.6471H374.695V25.1176ZM371.166 25.1176H374.695V28.6471H371.166V25.1176ZM367.636 28.6471H371.166V32.1765H367.636V28.6471ZM364.107 28.6471H367.636V32.1765H364.107V28.6471ZM371.166 28.6471H374.695V32.1765H371.166V28.6471ZM374.695 28.6471H378.225V32.1765H374.695V28.6471ZM378.225 28.6471H381.754V32.1765H378.225V28.6471ZM378.225 32.1765H381.754V35.7059H378.225V32.1765ZM378.225 35.7059H381.754V39.2353H378.225V35.7059ZM378.225 39.2353H381.754V42.7647H378.225V39.2353ZM378.225 42.7647H381.754V46.2941H378.225V42.7647ZM378.225 46.2941H381.754V49.8235H378.225V46.2941ZM378.225 49.8235H381.754V53.3529H378.225V49.8235ZM378.225 53.3529H381.754V56.8824H378.225V53.3529ZM378.225 56.8824H381.754V60.4118H378.225V56.8824ZM374.695 56.8824H378.225V60.4118H374.695V56.8824ZM374.695 60.4118H378.225V63.9412H374.695V60.4118ZM374.695 63.9412H378.225V67.4706H374.695V63.9412ZM371.166 63.9412H374.695V67.4706H371.166V63.9412ZM367.636 63.9412H371.166V67.4706H367.636V63.9412ZM367.636 56.8824H371.166V60.4118H367.636V56.8824ZM367.636 60.4118H371.166V63.9412H367.636V60.4118ZM371.166 60.4118H374.695V63.9412H371.166V60.4118ZM371.166 56.8824H374.695V60.4118H371.166V56.8824ZM371.166 53.3529H374.695V56.8824H371.166V53.3529ZM367.636 53.3529H371.166V56.8824H367.636V53.3529ZM367.636 49.8235H371.166V53.3529H367.636V49.8235ZM367.636 46.2941H371.166V49.8235H367.636V46.2941ZM367.636 42.7647H371.166V46.2941H367.636V42.7647ZM367.636 39.2353H371.166V42.7647H367.636V39.2353ZM367.636 35.7059H371.166V39.2353H367.636V35.7059ZM367.636 32.1765H371.166V35.7059H367.636V32.1765ZM371.166 32.1765H374.695V35.7059H371.166V32.1765ZM371.166 35.7059H374.695V39.2353H371.166V35.7059ZM371.166 39.2353H374.695V42.7647H371.166V39.2353ZM371.166 42.7647H374.695V46.2941H371.166V42.7647ZM371.166 46.2941H374.695V49.8235H371.166V46.2941ZM371.166 49.8235H374.695V53.3529H371.166V49.8235ZM374.695 53.3529H378.225V56.8824H374.695V53.3529ZM374.695 49.8235H378.225V53.3529H374.695V49.8235ZM374.695 46.2941H378.225V49.8235H374.695V46.2941ZM374.695 42.7647H378.225V46.2941H374.695V42.7647ZM374.695 39.2353H378.225V42.7647H374.695V39.2353ZM374.695 35.7059H378.225V39.2353H374.695V35.7059ZM374.695 32.1765H378.225V35.7059H374.695V32.1765ZM367.636 67.4706H371.166V71H367.636V67.4706ZM353.519 21.5882H357.048V25.1176H353.519V21.5882ZM353.519 25.1176H357.048V28.6471H353.519V25.1176ZM353.519 28.6471H357.048V32.1765H353.519V28.6471ZM357.048 21.5882H360.578V25.1176H357.048V21.5882ZM360.578 21.5882H364.107V25.1176H360.578V21.5882ZM364.107 21.5882H367.636V25.1176H364.107V21.5882ZM364.107 25.1176H367.636V28.6471H364.107V25.1176ZM360.578 25.1176H364.107V28.6471H360.578V25.1176ZM357.048 25.1176H360.578V28.6471H357.048V25.1176ZM371.166 67.4706H374.695V71H371.166V67.4706ZM374.695 67.4706H378.225V71H374.695V67.4706ZM378.225 67.4706H381.754V71H378.225V67.4706ZM378.225 63.9412H381.754V67.4706H378.225V63.9412ZM378.225 60.4118H381.754V63.9412H378.225V60.4118ZM339.401 18.0588H342.931V21.5882H339.401V18.0588ZM357.048 28.6471H360.578V32.1765H357.048V28.6471ZM406.405 18.0588H409.934V21.5882H406.405V18.0588ZM409.934 18.0588H413.464V21.5882H409.934V18.0588ZM402.875 18.0588H406.405V21.5882H402.875V18.0588ZM413.464 18.0588H416.993V21.5882H413.464V18.0588ZM416.993 18.0588H420.523V21.5882H416.993V18.0588ZM420.523 18.0588H424.052V21.5882H420.523V18.0588ZM424.052 18.0588H427.581V21.5882H424.052V18.0588ZM427.581 21.5882H431.111V25.1176H427.581V21.5882ZM424.052 21.5882H427.581V25.1176H424.052V21.5882ZM424.052 25.1176H427.581V28.6471H424.052V25.1176ZM431.111 21.5882H434.64V25.1176H431.111V21.5882ZM431.111 25.1176H434.64V28.6471H431.111V25.1176ZM427.581 25.1176H431.111V28.6471H427.581V25.1176ZM424.052 28.6471H427.581V32.1765H424.052V28.6471ZM420.523 28.6471H424.052V32.1765H420.523V28.6471ZM427.581 28.6471H431.111V32.1765H427.581V28.6471ZM431.111 28.6471H434.64V32.1765H431.111V28.6471ZM434.64 28.6471H438.17V32.1765H434.64V28.6471ZM434.64 32.1765H438.17V35.7059H434.64V32.1765ZM434.64 53.3529H438.17V56.8824H434.64V53.3529ZM434.64 56.8824H438.17V60.4118H434.64V56.8824ZM431.111 56.8824H434.64V60.4118H431.111V56.8824ZM431.111 60.4118H434.64V63.9412H431.111V60.4118ZM431.111 63.9412H434.64V67.4706H431.111V63.9412ZM427.581 63.9412H431.111V67.4706H427.581V63.9412ZM424.052 63.9412H427.581V67.4706H424.052V63.9412ZM420.523 60.4118H424.052V63.9412H420.523V60.4118ZM420.523 56.8824H424.052V60.4118H420.523V56.8824ZM424.052 56.8824H427.581V60.4118H424.052V56.8824ZM424.052 60.4118H427.581V63.9412H424.052V60.4118ZM427.581 60.4118H431.111V63.9412H427.581V60.4118ZM427.581 56.8824H431.111V60.4118H427.581V56.8824ZM427.581 53.3529H431.111V56.8824H427.581V53.3529ZM424.052 53.3529H427.581V56.8824H424.052V53.3529ZM424.052 32.1765H427.581V35.7059H424.052V32.1765ZM427.581 32.1765H431.111V35.7059H427.581V32.1765ZM431.111 53.3529H434.64V56.8824H431.111V53.3529ZM431.111 32.1765H434.64V35.7059H431.111V32.1765ZM420.523 63.9412H424.052V67.4706H420.523V63.9412ZM420.523 67.4706H424.052V71H420.523V67.4706ZM424.052 67.4706H427.581V71H424.052V67.4706ZM416.993 67.4706H420.523V71H416.993V67.4706ZM413.464 67.4706H416.993V71H413.464V67.4706ZM409.934 67.4706H413.464V71H409.934V67.4706ZM406.405 67.4706H409.934V71H406.405V67.4706ZM402.875 67.4706H406.405V71H402.875V67.4706ZM402.875 63.9412H406.405V67.4706H402.875V63.9412ZM399.346 63.9412H402.875V67.4706H399.346V63.9412ZM395.817 63.9412H399.346V67.4706H395.817V63.9412ZM395.817 60.4118H399.346V63.9412H395.817V60.4118ZM392.287 56.8824H395.817V60.4118H392.287V56.8824ZM395.817 56.8824H399.346V60.4118H395.817V56.8824ZM392.287 53.3529H395.817V56.8824H392.287V53.3529ZM392.287 49.8235H395.817V53.3529H392.287V49.8235ZM392.287 46.2941H395.817V49.8235H392.287V46.2941ZM392.287 42.7647H395.817V46.2941H392.287V42.7647ZM392.287 39.2353H395.817V42.7647H392.287V39.2353ZM392.287 35.7059H395.817V39.2353H392.287V35.7059ZM395.817 35.7059H399.346V39.2353H395.817V35.7059ZM395.817 32.1765H399.346V35.7059H395.817V32.1765ZM392.287 32.1765H395.817V35.7059H392.287V32.1765ZM392.287 28.6471H395.817V32.1765H392.287V28.6471ZM395.817 28.6471H399.346V32.1765H395.817V28.6471ZM395.817 25.1176H399.346V28.6471H395.817V25.1176ZM395.817 21.5882H399.346V25.1176H395.817V21.5882ZM399.346 21.5882H402.875V25.1176H399.346V21.5882ZM402.875 21.5882H406.405V25.1176H402.875V21.5882ZM406.405 21.5882H409.934V25.1176H406.405V21.5882ZM406.405 25.1176H409.934V28.6471H406.405V25.1176ZM406.405 28.6471H409.934V32.1765H406.405V28.6471ZM402.875 28.6471H406.405V32.1765H402.875V28.6471ZM399.346 28.6471H402.875V32.1765H399.346V28.6471ZM402.875 32.1765H406.405V35.7059H402.875V32.1765ZM402.875 35.7059H406.405V39.2353H402.875V35.7059ZM402.875 39.2353H406.405V42.7647H402.875V39.2353ZM402.875 42.7647H406.405V46.2941H402.875V42.7647ZM402.875 46.2941H406.405V49.8235H402.875V46.2941ZM402.875 49.8235H406.405V53.3529H402.875V49.8235ZM402.875 53.3529H406.405V56.8824H402.875V53.3529ZM402.875 56.8824H406.405V60.4118H402.875V56.8824ZM406.405 56.8824H409.934V60.4118H406.405V56.8824ZM406.405 60.4118H409.934V63.9412H406.405V60.4118ZM409.934 60.4118H413.464V63.9412H409.934V60.4118ZM413.464 60.4118H416.993V63.9412H413.464V60.4118ZM416.993 60.4118H420.523V63.9412H416.993V60.4118ZM416.993 63.9412H420.523V67.4706H416.993V63.9412ZM413.464 63.9412H416.993V67.4706H413.464V63.9412ZM409.934 63.9412H413.464V67.4706H409.934V63.9412ZM406.405 63.9412H409.934V67.4706H406.405V63.9412ZM402.875 60.4118H406.405V63.9412H402.875V60.4118ZM399.346 60.4118H402.875V63.9412H399.346V60.4118ZM399.346 56.8824H402.875V60.4118H399.346V56.8824ZM399.346 53.3529H402.875V56.8824H399.346V53.3529ZM399.346 49.8235H402.875V53.3529H399.346V49.8235ZM395.817 49.8235H399.346V53.3529H395.817V49.8235ZM395.817 53.3529H399.346V56.8824H395.817V53.3529ZM395.817 46.2941H399.346V49.8235H395.817V46.2941ZM395.817 42.7647H399.346V46.2941H395.817V42.7647ZM395.817 39.2353H399.346V42.7647H395.817V39.2353ZM399.346 39.2353H402.875V42.7647H399.346V39.2353ZM399.346 42.7647H402.875V46.2941H399.346V42.7647ZM399.346 46.2941H402.875V49.8235H399.346V46.2941ZM399.346 35.7059H402.875V39.2353H399.346V35.7059ZM399.346 32.1765H402.875V35.7059H399.346V32.1765ZM399.346 25.1176H402.875V28.6471H399.346V25.1176ZM402.875 25.1176H406.405V28.6471H402.875V25.1176ZM409.934 21.5882H413.464V25.1176H409.934V21.5882ZM413.464 21.5882H416.993V25.1176H413.464V21.5882ZM416.993 21.5882H420.523V25.1176H416.993V21.5882ZM420.523 21.5882H424.052V25.1176H420.523V21.5882ZM420.523 25.1176H424.052V28.6471H420.523V25.1176ZM416.993 25.1176H420.523V28.6471H416.993V25.1176ZM413.464 25.1176H416.993V28.6471H413.464V25.1176ZM409.934 25.1176H413.464V28.6471H409.934V25.1176ZM434.64 35.7059H438.17V39.2353H434.64V35.7059ZM431.111 35.7059H434.64V39.2353H431.111V35.7059ZM427.581 35.7059H431.111V39.2353H427.581V35.7059ZM424.052 35.7059H427.581V39.2353H424.052V35.7059ZM434.64 39.2353H438.17V42.7647H434.64V39.2353ZM431.111 39.2353H434.64V42.7647H431.111V39.2353ZM427.581 39.2353H431.111V42.7647H427.581V39.2353ZM424.052 39.2353H427.581V42.7647H424.052V39.2353ZM420.523 39.2353H424.052V42.7647H420.523V39.2353ZM416.993 39.2353H420.523V42.7647H416.993V39.2353ZM413.464 39.2353H416.993V42.7647H413.464V39.2353ZM409.934 39.2353H413.464V42.7647H409.934V39.2353ZM406.405 39.2353H409.934V42.7647H406.405V39.2353ZM406.405 42.7647H409.934V46.2941H406.405V42.7647ZM409.934 42.7647H413.464V46.2941H409.934V42.7647ZM413.464 42.7647H416.993V46.2941H413.464V42.7647ZM416.993 42.7647H420.523V46.2941H416.993V42.7647ZM420.523 42.7647H424.052V46.2941H420.523V42.7647ZM424.052 42.7647H427.581V46.2941H424.052V42.7647ZM427.581 42.7647H431.111V46.2941H427.581V42.7647ZM431.111 42.7647H434.64V46.2941H431.111V42.7647ZM434.64 42.7647H438.17V46.2941H434.64V42.7647ZM484.08 28.6471H487.609V32.1765H484.08V28.6471ZM480.55 28.6471H484.08V32.1765H480.55V28.6471ZM477.021 28.6471H480.55V32.1765H477.021V28.6471ZM477.021 25.1176H480.55V28.6471H477.021V25.1176ZM473.491 25.1176H477.021V28.6471H473.491V25.1176ZM480.55 25.1176H484.08V28.6471H480.55V25.1176ZM484.08 25.1176H487.609V28.6471H484.08V25.1176ZM480.55 21.5882H484.08V25.1176H480.55V21.5882ZM477.021 21.5882H480.55V25.1176H477.021V21.5882ZM473.491 21.5882H477.021V25.1176H473.491V21.5882ZM473.491 18.0588H477.021V21.5882H473.491V18.0588ZM477.021 18.0588H480.55V21.5882H477.021V18.0588ZM469.962 18.0588H473.491V21.5882H469.962V18.0588ZM466.432 18.0588H469.962V21.5882H466.432V18.0588ZM462.903 18.0588H466.432V21.5882H462.903V18.0588ZM459.374 21.5882H462.903V25.1176H459.374V21.5882ZM455.844 21.5882H459.374V25.1176H455.844V21.5882ZM455.844 18.0588H459.374V21.5882H455.844V18.0588ZM459.374 18.0588H462.903V21.5882H459.374V18.0588ZM462.903 21.5882H466.432V25.1176H462.903V21.5882ZM462.903 25.1176H466.432V28.6471H462.903V25.1176ZM466.432 25.1176H469.962V28.6471H466.432V25.1176ZM469.962 25.1176H473.491V28.6471H469.962V25.1176ZM469.962 21.5882H473.491V25.1176H469.962V21.5882ZM466.432 21.5882H469.962V25.1176H466.432V21.5882ZM459.374 25.1176H462.903V28.6471H459.374V25.1176ZM455.844 25.1176H459.374V28.6471H455.844V25.1176ZM452.315 25.1176H455.844V28.6471H452.315V25.1176ZM448.785 25.1176H452.315V28.6471H448.785V25.1176ZM448.785 21.5882H452.315V25.1176H448.785V21.5882ZM452.315 21.5882H455.844V25.1176H452.315V21.5882ZM455.844 28.6471H459.374V32.1765H455.844V28.6471ZM459.374 28.6471H462.903V32.1765H459.374V28.6471ZM452.315 28.6471H455.844V32.1765H452.315V28.6471ZM448.785 28.6471H452.315V32.1765H448.785V28.6471ZM445.256 28.6471H448.785V32.1765H445.256V28.6471ZM448.785 32.1765H452.315V35.7059H448.785V32.1765ZM445.256 32.1765H448.785V35.7059H445.256V32.1765ZM445.256 35.7059H448.785V39.2353H445.256V35.7059ZM448.785 35.7059H452.315V39.2353H448.785V35.7059ZM452.315 32.1765H455.844V35.7059H452.315V32.1765ZM455.844 32.1765H459.374V35.7059H455.844V32.1765ZM455.844 35.7059H459.374V39.2353H455.844V35.7059ZM459.374 35.7059H462.903V39.2353H459.374V35.7059ZM452.315 35.7059H455.844V39.2353H452.315V35.7059ZM452.315 39.2353H455.844V42.7647H452.315V39.2353ZM448.785 39.2353H452.315V42.7647H448.785V39.2353ZM452.315 42.7647H455.844V46.2941H452.315V42.7647ZM448.785 42.7647H452.315V46.2941H448.785V42.7647ZM455.844 39.2353H459.374V42.7647H455.844V39.2353ZM459.374 39.2353H462.903V42.7647H459.374V39.2353ZM459.374 42.7647H462.903V46.2941H459.374V42.7647ZM459.374 46.2941H462.903V49.8235H459.374V46.2941ZM455.844 46.2941H459.374V49.8235H455.844V46.2941ZM455.844 42.7647H459.374V46.2941H455.844V42.7647ZM462.903 42.7647H466.432V46.2941H462.903V42.7647ZM466.432 42.7647H469.962V46.2941H466.432V42.7647ZM466.432 39.2353H469.962V42.7647H466.432V39.2353ZM469.962 39.2353H473.491V42.7647H469.962V39.2353ZM473.491 39.2353H477.021V42.7647H473.491V39.2353ZM477.021 39.2353H480.55V42.7647H477.021V39.2353ZM462.903 39.2353H466.432V42.7647H462.903V39.2353ZM462.903 46.2941H466.432V49.8235H462.903V46.2941ZM466.432 46.2941H469.962V49.8235H466.432V46.2941ZM469.962 46.2941H473.491V49.8235H469.962V46.2941ZM473.491 46.2941H477.021V49.8235H473.491V46.2941ZM477.021 46.2941H480.55V49.8235H477.021V46.2941ZM477.021 42.7647H480.55V46.2941H477.021V42.7647ZM473.491 42.7647H477.021V46.2941H473.491V42.7647ZM469.962 42.7647H473.491V46.2941H469.962V42.7647ZM484.08 42.7647H487.609V46.2941H484.08V42.7647ZM480.55 42.7647H484.08V46.2941H480.55V42.7647ZM480.55 46.2941H484.08V49.8235H480.55V46.2941ZM484.08 46.2941H487.609V49.8235H484.08V46.2941ZM477.021 49.8235H480.55V53.3529H477.021V49.8235ZM473.491 49.8235H477.021V53.3529H473.491V49.8235ZM480.55 49.8235H484.08V53.3529H480.55V49.8235ZM484.08 49.8235H487.609V53.3529H484.08V49.8235ZM487.609 49.8235H491.138V53.3529H487.609V49.8235ZM487.609 53.3529H491.138V56.8824H487.609V53.3529ZM487.609 56.8824H491.138V60.4118H487.609V56.8824ZM484.08 56.8824H487.609V60.4118H484.08V56.8824ZM484.08 53.3529H487.609V56.8824H484.08V53.3529ZM480.55 53.3529H484.08V56.8824H480.55V53.3529ZM480.55 56.8824H484.08V60.4118H480.55V56.8824ZM477.021 53.3529H480.55V56.8824H477.021V53.3529ZM477.021 56.8824H480.55V60.4118H477.021V56.8824ZM473.491 56.8824H477.021V60.4118H473.491V56.8824ZM473.491 60.4118H477.021V63.9412H473.491V60.4118ZM477.021 60.4118H480.55V63.9412H477.021V60.4118ZM477.021 63.9412H480.55V67.4706H477.021V63.9412ZM480.55 63.9412H484.08V67.4706H480.55V63.9412ZM480.55 60.4118H484.08V63.9412H480.55V60.4118ZM484.08 60.4118H487.609V63.9412H484.08V60.4118ZM484.08 63.9412H487.609V67.4706H484.08V63.9412ZM477.021 67.4706H480.55V71H477.021V67.4706ZM473.491 67.4706H477.021V71H473.491V67.4706ZM473.491 63.9412H477.021V67.4706H473.491V63.9412ZM469.962 63.9412H473.491V67.4706H469.962V63.9412ZM466.432 63.9412H469.962V67.4706H466.432V63.9412ZM462.903 63.9412H466.432V67.4706H462.903V63.9412ZM462.903 60.4118H466.432V63.9412H462.903V60.4118ZM466.432 60.4118H469.962V63.9412H466.432V60.4118ZM469.962 60.4118H473.491V63.9412H469.962V60.4118ZM469.962 67.4706H473.491V71H469.962V67.4706ZM466.432 67.4706H469.962V71H466.432V67.4706ZM462.903 67.4706H466.432V71H462.903V67.4706ZM459.374 67.4706H462.903V71H459.374V67.4706ZM455.844 67.4706H459.374V71H455.844V67.4706ZM455.844 63.9412H459.374V67.4706H455.844V63.9412ZM459.374 63.9412H462.903V67.4706H459.374V63.9412ZM459.374 60.4118H462.903V63.9412H459.374V60.4118ZM455.844 60.4118H459.374V63.9412H455.844V60.4118ZM452.315 63.9412H455.844V67.4706H452.315V63.9412ZM448.785 63.9412H452.315V67.4706H448.785V63.9412ZM448.785 60.4118H452.315V63.9412H448.785V60.4118ZM452.315 60.4118H455.844V63.9412H452.315V60.4118ZM455.844 56.8824H459.374V60.4118H455.844V56.8824ZM459.374 56.8824H462.903V60.4118H459.374V56.8824ZM455.844 53.3529H459.374V56.8824H455.844V53.3529ZM452.315 53.3529H455.844V56.8824H452.315V53.3529ZM448.785 53.3529H452.315V56.8824H448.785V53.3529ZM445.256 53.3529H448.785V56.8824H445.256V53.3529ZM445.256 56.8824H448.785V60.4118H445.256V56.8824ZM448.785 56.8824H452.315V60.4118H448.785V56.8824ZM452.315 56.8824H455.844V60.4118H452.315V56.8824ZM487.609 28.6471H491.138V32.1765H487.609V28.6471ZM484.08 21.5882H487.609V25.1176H484.08V21.5882ZM487.609 32.1765H491.138V35.7059H487.609V32.1765ZM484.08 32.1765H487.609V35.7059H484.08V32.1765ZM480.55 32.1765H484.08V35.7059H480.55V32.1765ZM477.021 32.1765H480.55V35.7059H477.021V32.1765ZM473.491 28.6471H477.021V32.1765H473.491V28.6471Z" fill="black"/>
</svg>
